{"title":"Rugby.Union-Scrum.V-2013.03.10.pdtv.x264","uid":8255895,"size":601470915,"categoryP":"video","categoryS":"tv_shows","magnet":"?xt=urn:btih:4b72bd797152244428ff3213b9a90f4948ff363c&amp;dn=Rugby.Union-Scrum.V-2013.03.10.pdtv.x264&amp;tr=udp%3A%2F%2Ftracker.openbittorrent.com%3A80&amp;tr=udp%3A%2F%2Fopen.demonii.com%3A1337&amp;tr=udp%3A%2F%2Ftracker.coppersurfer.tk%3A6969&amp;tr=udp%3A%2F%2Fexodus.desync.com%3A6969","seeders":1,"leechers":0,"uploader":null,"files":4,"time":1363222283,"description":"SPORT: Scrum V - Six Nations Special\nOn: BBC 2 Wales \nDate: Sunday 10th March 2013 \nTime: 23:35 to 00:35 \n\nJason Mohammad presents Scrum V Six Nations Special with highlights of Scotland v Wales and a preview of Wales's final game of the championship against England. Studio guests include former Wales internationals Shane Williams and Robert Jones.\n\n\n\nGeneral\nComplete name: 2013.03.10.Scrum.V.pdtv.x264.mp4\nFormat : MPEG-4\nFormat profile : Base Media\nCodec ID : isom\nFile size: 573 MiB\nDuration : 58mn 58s\nOverall bit rate mode: Variable\nOverall bit rate : 1 358 Kbps\n\nVideo\nID : 1\nFormat : AVC\nFormat/Info: Advanced Video Codec\nFormat profile : &lt;a class=&quot;__cf_email__&quot; href=&quot;/cdn-cgi/l/email-protection&quot; data-cfemail=&quot;3870515f5078740b1609&quot;&gt;[email&amp;#160;protected]&lt;/a&gt;&lt;script cf-hash='f9e31' type=&quot;text/javascript&quot;&gt;\n/* &lt;![CDATA[ */!function(){try{var t=&quot;currentScript&quot;in document?document.currentScript:function(){for(var t=document.getElementsByTagName(&quot;script&quot;),e=t.length;e--;)if(t[e].getAttribute(&quot;cf-hash&quot;))return t[e]}();if(t&amp;&amp;t.previousSibling){var e,r,n,i,c=t.previousSibling,a=c.getAttribute(&quot;data-cfemail&quot;);if(a){for(e=&quot;&quot;,r=parseInt(a.substr(0,2),16),n=2;a.length-n;n+=2)i=parseInt(a.substr(n,2),16)^r,e+=String.fromCharCode(i);e=document.createTextNode(e),c.parentNode.replaceChild(e,c)}}}catch(u){}}();/* ]]&gt; */&lt;/script&gt;\nFormat settings, CABAC : Yes\nFormat settings, ReFrames: 5 frames\nCodec ID : avc1\nCodec ID/Info: Advanced Video Coding\nDuration : 58mn 58s\nBit rate : 1 226 Kbps\nMaximum bit rate : 4 083 Kbps\nWidth: 720 pixels\nHeight : 416 pixels\nDisplay aspect ratio : 1.731\nFrame rate mode: Constant\nFrame rate : 25.000 fps\nColor space: YUV\nChroma subsampling : 4:2:0\nBit depth: 8 bits\nScan type: Progressive\nBits/(Pixel*Frame) : 0.164\nStream size: 517 MiB (90%)\nWriting library: x264 core 130 r2273 b3065e6\n\nAudio\nID : 2\nFormat : AAC\nFormat/Info: Advanced Audio Codec\nFormat profile : LC\nCodec ID : 40\nDuration : 58mn 58s\nBit rate mode: Variable\nBit rate : 128 Kbps\nMaximum bit rate : 143 Kbps\nChannel(s) : 2 channels\nChannel positions: Front: L R\nSampling rate: 48.0 KHz\nCompression mode : Lossy\nDelay relative to video: 80ms\nStream size: 54.0 MiB (9%)\nLanguage : English","torrent":{"xt":"urn:btih:4b72bd797152244428ff3213b9a90f4948ff363c","amp;dn":"Rugby.Union-Scrum.V-2013.03.10.pdtv.x264","amp;tr":["udp%3A%2F%2Ftracker.openbittorrent.com%3A80","udp%3A%2F%2Fopen.demonii.com%3A1337","udp%3A%2F%2Ftracker.coppersurfer.tk%3A6969","udp%3A%2F%2Fexodus.desync.com%3A6969"],"infoHash":"4b72bd797152244428ff3213b9a90f4948ff363c","infoHashBuffer":{"type":"Buffer","data":[75,114,189,121,113,82,36,68,40,255,50,19,185,169,15,73,72,255,54,60]},"announce":[],"urlList":[]}}